<?xml version="1.0" standalone="no"?>
<!DOCTYPE svg PUBLIC "-//W3C//DTD SVG 20010904//EN"
 "http://www.w3.org/TR/2001/REC-SVG-20010904/DTD/svg10.dtd">
<svg version="1.0" xmlns="http://www.w3.org/2000/svg"
 width="1090.000000pt" height="1280.000000pt" viewBox="0 0 1090.000000 1280.000000"
 preserveAspectRatio="xMidYMid meet">
  <g transform="translate(0.000000,1280.000000) scale(0.100000,-0.100000)"
  fill="#2c384a" stroke="none">
    <path d="M10415 12790 c-27 -4 -122 -18 -210 -30 -230 -30 -445 -65 -725 -116
    -2533 -462 -4440 -1472 -5676 -3004 -646 -801 -1116 -1795 -1348 -2850 -129
    -589 -186 -1129 -186 -1761 0 -341 11 -570 40 -855 11 -105 20 -196 20 -202 0
    -9 -265 -12 -1032 -14 l-1033 -3 -53 -28 c-113 -59 -181 -151 -204 -275 -14
    -73 -2 -156 33 -230 18 -37 378 -403 1648 -1676 894 -895 1652 -1647 1683
    -1671 108 -81 253 -96 372 -40 38 18 361 281 1034 843 539 449 1409 1176 1935
    1615 526 439 973 817 992 839 64 75 94 193 76 292 -29 158 -145 277 -300 306
    -34 6 -433 10 -1097 10 l-1042 0 -6 28 c-3 15 -15 86 -26 157 -104 690 -86
    1453 51 2155 353 1810 1454 3383 3244 4635 576 403 1189 751 2012 1143 140 67
    199 116 241 198 121 242 -45 527 -316 539 -42 2 -99 0 -127 -5z"/>
  </g>
</svg>
